
<!-- Generator: visioncortex VTracer 0.6.4 -->
<svg version="1.1" xmlns="http://www.w3.org/2000/svg" viewBox="0 0 492 702" preserveAspectRatio="xMidYMid meet">
<path d="M0,0 L492,0 L492,702 L0,702 Z " fill="#030303" transform="translate(0,0)"/>
<path d="M0,0 L5,2 L6,3 L6,8 L2,10 L3,4 L-2,3 L-2,1 Z M-3,3 Z M1,10 L2,10 L2,40 L-14,56 L-16,55 L-11,50 L-3,42 L-2,40 L0,40 L0,18 Z M-17,56 L-16,56 L-16,91 L-32,107 L-32,148 L1,181 L1,258 L-9,268 L-9,398 L-6,401 L-6,403 L-2,405 L1,408 L1,410 L5,412 L33,440 L33,442 L37,444 L61,468 L61,505 L59,505 L58,469 L-12,399 L-12,268 L-9,264 L-7,264 L-5,260 L-1,258 L-2,181 L-35,148 L-35,106 L-19,90 L-17,90 Z " fill="#939393" transform="translate(143,197)"/>
<path d="M0,0 L5,0 L7,2 L6,7 L5,8 L5,88 L18,101 L19,134 L27,142 L28,188 L42,202 L42,284 L32,293 L26,299 L25,419 L9,435 L6,434 L20,420 L22,420 L23,299 L28,294 L39,283 L39,202 L25,189 L24,142 L21,140 L21,138 L18,137 L17,135 L16,103 L2,89 L1,8 L-1,6 L-1,1 Z " fill="#5A5A5A" transform="translate(309,267)"/>
<path d="M0,0 L5,1 L6,6 L4,8 L-1,10 L-25,34 L-26,133 L-32,139 L-34,139 L-36,143 L-44,151 L-46,151 L-48,155 L-59,166 L-61,166 L-63,170 L-69,176 L-71,176 L-73,180 L-75,180 L-75,324 L-67,331 L-44,354 L-44,407 L-42,407 L-41,412 L-43,414 L-48,413 L-49,409 L-48,407 L-46,407 L-47,355 L-77,325 L-77,180 L-29,132 L-28,33 L-9,14 L-7,14 L-6,11 L-4,11 L-2,7 Z " fill="#9F9F9F" transform="translate(363,17)"/>
<path d="M0,0 L5,1 L6,6 L2,8 L3,43 L14,54 L14,123 L0,137 L-1,184 L-2,184 L-2,136 L11,123 L11,54 L1,44 L1,8 L-2,7 L-2,1 Z M-1,184 L1,186 L-1,186 Z M1,186 Z M2,187 Z M3,188 L10,194 L11,196 L7,194 L3,190 Z M11,196 L15,199 L15,287 L-2,304 L-3,420 L-16,433 L-18,432 L-5,419 L-4,303 L12,287 L12,199 Z " fill="#A3A3A3" transform="translate(346,269)"/>
<path d="M0,0 L5,1 L6,6 L2,8 L2,59 L-12,73 L-12,121 L21,154 L21,223 L12,232 L12,370 L81,439 L81,472 L80,472 L79,440 L10,371 L10,231 L19,222 L19,155 L-15,121 L-15,73 L0,58 L1,8 L-2,7 L-2,1 Z " fill="#A5A5A5" transform="translate(112,230)"/>
<path d="M0,0 L4,1 L12,9 L17,14 L22,18 L22,95 L26,97 L69,140 L69,203 L72,204 L72,211 L71,212 L65,212 L63,210 L64,204 L65,203 L65,141 L40,116 L40,114 L36,112 L20,96 L19,20 L0,1 Z " fill="#696969" transform="translate(45,0)"/>
<path d="M0,0 L5,0 L6,1 L6,6 L4,8 L3,46 L-4,53 L-5,56 L-4,210 L67,281 L67,306 L65,306 L64,281 L-7,210 L-7,54 L0,46 L0,8 L-2,5 L-1,1 Z " fill="#5A5A5A" transform="translate(121,396)"/>
<path d="M0,0 L6,0 L8,2 L7,8 L4,9 L5,180 L10,184 L17,192 L64,239 L69,244 L76,251 L76,268 L74,268 L73,251 L65,243 L62,241 L62,239 L58,237 L52,230 L44,223 L39,218 L34,213 L28,206 L23,201 L2,180 L2,9 L-2,7 L-1,1 Z " fill="#818181" transform="translate(89,434)"/>
<path d="M0,0 L6,0 L8,2 L7,6 L4,7 L5,38 L19,52 L20,54 L20,170 L16,172 L14,176 L10,178 L8,182 L8,252 L17,261 L48,261 L59,250 L63,247 L68,248 L69,253 L67,255 L62,254 L58,254 L49,263 L16,263 L6,253 L6,180 L9,179 L9,177 L11,177 L13,173 L15,173 L15,171 L17,171 L17,54 L10,46 L2,39 L1,7 L-1,6 L-1,1 Z " fill="#565656" transform="translate(397,297)"/>
<path d="M0,0 L4,1 L5,6 L4,8 L1,8 L1,6 L3,6 L3,2 L0,1 Z M-1,7 Z M0,8 L1,8 L1,139 L-4,144 L-6,144 L-8,148 L-15,154 L-20,159 L-22,161 L-23,230 L-30,236 L-33,240 L-35,240 L-37,244 L-40,245 L-40,247 L-42,247 L-44,251 L-52,258 L-53,400 L-54,400 L-54,257 L-26,229 L-25,161 L-1,137 Z " fill="#585858" transform="translate(240,168)"/>
<path d="M0,0 L1,0 L2,12 L50,60 L50,240 L9,281 L9,390 L19,400 L24,400 L26,402 L25,406 L20,407 L18,405 L16,400 L7,391 L7,280 L48,239 L48,61 L0,13 Z " fill="#747474" transform="translate(159,0)"/>
<path d="M0,0 L5,0 L6,1 L6,7 L3,8 L3,51 L-5,59 L-6,103 L-19,116 L-20,210 L-25,215 L-37,227 L-39,230 L-40,345 L-48,353 L-50,353 L-50,351 L-42,344 L-41,228 L-22,209 L-21,115 L-9,103 L-8,59 L1,50 L2,8 L-2,6 L-1,1 Z " fill="#797979" transform="translate(390,349)"/>
<path d="M0,0 L1,0 L1,49 L-34,84 L-35,150 L-68,183 L-68,180 L-38,150 L-37,84 L-1,48 Z M-71,183 L-69,184 L-76,191 L-77,252 L-72,253 L-73,258 L-78,257 L-79,253 L-79,191 Z " fill="#646464" transform="translate(388,0)"/>
<path d="M0,0 Z M-2,1 L0,2 L-7,8 L-5,4 Z M-9,8 L-7,9 L-14,16 L-14,13 Z M-16,16 Z M-17,17 Z M-19,18 L-17,19 L-23,24 L-21,20 Z M-25,24 L-23,25 L-38,40 L-38,37 Z M-40,40 Z M-42,41 L-40,42 L-41,43 L-42,177 L-46,181 L-48,180 L-45,177 L-44,43 Z M-49,181 Z M-51,182 L-49,182 L-51,186 L-58,193 L-60,193 L-59,190 L-57,190 L-55,186 Z M-61,193 Z M-62,194 Z M-63,195 Z M-64,196 Z M-65,197 Z M-66,198 Z M-67,199 Z M-68,200 Z M-69,201 L-68,201 L-67,247 L-65,249 L-66,254 L-70,255 L-72,254 L-72,249 L-70,247 Z " fill="#646464" transform="translate(266,119)"/>
<path d="M0,0 L1,0 L1,95 L-4,99 L-2,95 L-1,94 Z M-5,99 Z M-7,100 L-5,101 L-11,106 L-9,102 Z M-12,106 Z M-13,107 Z M-14,108 Z M-15,109 Z M-16,110 Z M-18,111 L-16,112 L-33,129 L-33,126 Z M-36,129 L-34,130 L-36,132 L-37,200 L-77,240 L-77,279 L-76,283 L-78,285 L-82,284 L-81,279 L-80,240 L-40,200 L-39,132 Z " fill="#6E6E6E" transform="translate(414,0)"/>
<path d="M0,0 L3,1 L1,2 L1,4 L4,4 L6,2 L5,7 L4,8 L4,135 L16,149 L18,151 L18,205 L16,205 L15,151 L4,139 L1,136 L1,7 L-1,7 L-2,2 Z " fill="#9B9B9B" transform="translate(210,497)"/>
<path d="M0,0 L1,0 L2,129 L6,133 L6,135 L10,137 L13,140 L13,142 L17,144 L45,172 L45,174 L49,176 L73,200 L73,237 L71,237 L70,201 L0,131 Z " fill="#A8A8A8" transform="translate(131,465)"/>
<path d="M0,0 L4,2 L11,9 L10,11 L0,1 Z M11,11 L13,12 L14,85 L60,131 L61,175 L63,179 L61,182 L56,181 L55,176 L58,175 L57,131 L11,85 Z " fill="#5A5A5A" transform="translate(83,0)"/>
<path d="M0,0 L1,0 L2,142 L10,149 L33,172 L33,225 L35,225 L36,230 L34,232 L29,231 L28,227 L29,225 L31,225 L30,173 L0,143 Z " fill="#8E8E8E" transform="translate(286,199)"/>
<path d="M0,0 L5,0 L7,2 L6,7 L5,8 L5,88 L18,101 L19,134 L27,142 L27,187 L26,187 L25,147 L23,141 L21,140 L21,138 L18,137 L17,135 L16,103 L2,89 L1,8 L-1,6 L-1,1 Z " fill="#717171" transform="translate(309,267)"/>
<path d="M0,0 L1,0 L2,5 L3,5 L4,144 L6,146 L5,152 L4,153 L-1,153 L-3,151 L-3,146 L-1,144 Z " fill="#222222" transform="translate(185,426)"/>
<path d="M0,0 L5,0 L6,3 L20,3 L43,26 L43,254 L42,254 L41,27 L20,6 L6,6 L5,7 L-1,7 L-2,2 Z " fill="#555555" transform="translate(63,354)"/>
<path d="M0,0 L40,0 L49,9 L55,14 L56,16 L63,18 L63,23 L58,25 L55,22 L53,16 L48,12 L41,4 L40,3 L1,3 L-17,21 L-18,135 L-19,135 L-19,20 L-14,14 L-9,9 Z " fill="#747474" transform="translate(392,567)"/>
<path d="M0,0 L5,1 L6,6 L3,7 L3,57 L-25,85 L-26,174 L-23,175 L-23,180 L-24,181 L-29,181 L-30,180 L-30,175 L-27,174 L-27,84 L0,57 L1,7 L-1,7 L-2,2 Z " fill="#7E7E7E" transform="translate(226,353)"/>
<path d="M0,0 L0,3 L-4,7 L-6,6 Z M-7,7 Z M-8,8 Z M-9,9 L-9,12 L-21,24 L-23,23 Z M-24,24 Z M-25,25 Z M-26,26 Z M-27,27 Z M-28,28 L-28,31 L-31,31 Z M-32,32 L-32,35 L-34,37 L-34,146 L-32,148 L-33,153 L-38,154 L-40,149 L-38,146 L-37,37 Z " fill="#606060" transform="translate(304,136)"/>
<path d="M0,0 L5,0 L6,5 L4,7 L3,70 L-9,82 L-10,132 L-8,132 L-8,137 L-13,138 L-15,136 L-14,132 L-13,131 L-12,82 L0,70 L0,7 L-1,6 L-1,1 Z " fill="#686868" transform="translate(170,89)"/>
<path d="M0,0 L3,1 L1,2 L1,4 L5,5 L5,7 L3,7 L4,106 L27,129 L28,131 L29,189 L31,191 L30,196 L24,196 L24,190 L25,189 L25,130 L2,107 L1,7 L-1,6 L-1,1 Z " fill="#464646" transform="translate(234,393)"/>
<path d="M0,0 L2,1 L-8,11 L-8,136 L-6,139 L-7,143 L-12,144 L-14,142 L-13,137 L-11,137 L-11,11 Z " fill="#6E6E6E" transform="translate(238,0)"/>
<path d="M0,0 L5,1 L6,6 L4,8 L3,96 L-13,112 L-15,119 L-20,119 L-22,117 L-21,112 L-17,111 L-13,109 L0,96 L1,8 L-1,8 L-2,2 Z " fill="#666666" transform="translate(378,464)"/>
<path d="M0,0 Z M-1,1 L1,3 L1,77 L-9,87 L-10,216 L-11,216 L-11,85 L-7,83 L-5,79 L-1,77 Z " fill="#686868" transform="translate(143,378)"/>
<path d="M0,0 L3,0 L5,5 L3,8 L1,8 L1,42 L-7,50 L-8,142 L-12,146 L-14,146 L-16,150 L-18,150 L-16,146 L-11,141 L-10,50 L-1,41 L0,8 L-3,7 L-3,2 Z " fill="#6D6D6D" transform="translate(396,424)"/>
<path d="M0,0 L5,1 L6,6 L4,8 L3,48 L1,49 L0,8 L-2,6 L-1,1 Z M-1,49 L1,50 L-7,58 L-7,55 Z M-9,58 Z M-10,59 L-9,59 L-8,159 L-5,162 L-7,167 L-12,167 L-13,166 L-13,160 L-10,159 Z " fill="#A2A2A2" transform="translate(376,294)"/>
<path d="M0,0 L3,1 L2,2 L4,3 L4,7 L2,7 L1,9 L-2,9 L-3,3 Z M0,9 L1,9 L1,138 L0,138 Z M2,9 L3,9 L3,139 L2,139 Z " fill="#282828" transform="translate(239,167)"/>
<path d="M0,0 L5,1 L6,6 L2,8 L2,59 L-12,73 L-12,121 L20,153 L19,155 L-15,121 L-15,73 L0,58 L1,8 L-2,7 L-2,1 Z " fill="#828282" transform="translate(112,230)"/>
<path d="M0,0 L5,1 L6,6 L4,8 L4,94 L6,96 L5,101 L0,102 L-2,100 L-1,95 L0,94 L0,8 L-2,6 L-1,1 Z " fill="#5F5F5F" transform="translate(76,397)"/>
<path d="M0,0 L0,3 L-40,43 L-40,152 L-30,162 L-25,162 L-23,164 L-24,168 L-29,169 L-31,167 L-33,162 L-42,153 L-42,42 Z " fill="#6A6A6A" transform="translate(208,238)"/>
<path d="M0,0 L5,1 L6,6 L4,8 L3,106 L-2,111 L-4,110 L0,106 L0,8 L-2,6 L-1,1 Z " fill="#7D7D7D" transform="translate(357,591)"/>
<path d="M0,0 L4,1 L12,9 L17,14 L22,18 L22,95 L26,97 L23,99 L20,96 L19,20 L0,1 Z M26,98 Z M24,99 Z M27,99 Z M25,100 Z M28,100 Z M26,101 Z M29,101 Z M27,102 Z M30,102 Z M28,103 Z M31,103 Z M29,104 Z M32,104 Z M30,105 Z M33,105 Z M31,106 Z M34,106 Z M32,107 Z M35,107 Z M33,108 Z M36,108 Z M34,109 Z M35,110 Z M36,111 Z M37,112 Z M38,113 Z " fill="#484848" transform="translate(45,0)"/>
<path d="M0,0 L4,1 L5,6 L4,8 L2,8 L3,96 L4,99 L0,99 L0,103 L-2,103 L-3,99 L-1,96 L-1,9 L-3,6 L-2,1 Z M4,99 Z " fill="#323232" transform="translate(63,414)"/>
<path d="M0,0 L5,1 L6,6 L2,8 L3,43 L14,54 L14,123 L12,123 L11,54 L1,44 L1,8 L-2,7 L-2,1 Z M11,123 Z M10,124 Z M9,125 Z " fill="#666666" transform="translate(346,269)"/>
<path d="M0,0 L5,1 L6,2 L6,7 L3,8 L4,29 L11,36 L10,38 L7,36 L7,34 L3,32 L2,30 L2,8 L-2,6 L-1,1 Z M11,38 L15,40 L20,46 L20,105 L18,105 L17,46 L13,41 L11,40 Z " fill="#4E4E4E" transform="translate(70,597)"/>
<path d="M0,0 L5,0 L6,1 L6,7 L3,8 L3,51 L-5,59 L-6,103 L-19,116 L-21,115 L-9,103 L-8,59 L1,50 L2,8 L-2,6 L-1,1 Z " fill="#5E5E5E" transform="translate(390,349)"/>
<path d="M0,0 L1,0 L1,6 L0,6 Z M-2,5 L0,7 L-6,12 L-9,16 L-11,16 L-13,20 L-16,21 L-16,23 L-18,23 L-20,27 L-28,34 L-29,176 L-30,176 L-30,33 Z " fill="#474747" transform="translate(216,392)"/>
<path d="M0,0 L5,1 L6,6 L4,8 L-1,10 L-20,29 L-22,27 L-9,14 L-7,14 L-6,11 L-4,11 L-2,7 Z M-23,28 Z M-24,29 Z M-22,29 Z M-25,30 Z M-23,30 Z M-26,31 Z M-24,31 Z M-27,32 Z M-25,32 Z M-26,33 Z M-27,34 L-26,34 L-26,133 L-27,133 Z " fill="#787878" transform="translate(363,17)"/>
<path d="M0,0 L2,0 L2,98 L-3,103 L-5,102 L-1,97 Z M-6,103 Z M-8,104 L-6,105 L-9,107 Z M-11,107 L-9,108 L-11,109 Z " fill="#525252" transform="translate(441,0)"/>
<path d="M0,0 L0,3 L-1,65 L-8,73 L-9,74 L-16,75 L-18,78 L-23,77 L-24,72 L-23,70 L-17,70 L-16,73 L-9,72 L-7,68 L-4,65 L-3,3 Z " fill="#676767" transform="translate(88,267)"/>
<path d="M0,0 L4,1 L5,2 L5,7 L2,8 L1,165 L0,165 L-1,8 L-2,7 L-2,2 Z " fill="#383838" transform="translate(51,367)"/>
<path d="M0,0 Z M1,1 L6,4 L14,12 L13,14 L10,12 L10,10 L8,10 L3,5 Z M14,14 Z M15,15 L17,15 L18,56 L21,59 L20,64 L18,66 L13,65 L11,63 L11,58 L14,56 Z " fill="#525252" transform="translate(99,363)"/>
<path d="M0,0 L1,0 L1,121 L-14,136 L-17,135 L-3,121 L-1,121 Z " fill="#717171" transform="translate(332,566)"/>
<path d="M0,0 L4,1 L5,6 L2,7 L2,110 L-6,118 L-8,117 L-1,110 L0,108 L1,8 L-1,8 L-2,2 Z " fill="#6E6E6E" transform="translate(313,18)"/>
<path d="M0,0 L3,1 L1,2 L1,4 L4,4 L6,2 L5,7 L3,9 L2,136 L1,136 L1,7 L-1,7 L-2,2 Z " fill="#666666" transform="translate(210,497)"/>
<path d="M0,0 L4,2 L40,38 L45,43 L52,50 L52,67 L50,67 L49,50 L41,42 L38,40 L38,38 L34,36 L28,29 L20,22 L15,17 L10,12 L4,5 L0,2 Z " fill="#787878" transform="translate(113,635)"/>
<path d="M0,0 L1,0 L2,56 L4,58 L3,63 L-3,63 L-3,57 L-2,56 L-1,1 Z " fill="#363636" transform="translate(261,526)"/>
<path d="M0,0 L6,0 L8,2 L7,6 L4,7 L5,38 L16,49 L14,51 L10,46 L2,39 L1,7 L-1,6 L-1,1 Z M16,50 Z M15,51 Z M17,51 Z M16,52 Z M18,52 Z M17,53 Z " fill="#474747" transform="translate(397,297)"/>
<path d="M0,0 L2,2 L2,61 L7,62 L6,67 L1,66 L0,62 Z " fill="#404040" transform="translate(309,191)"/>
<path d="M0,0 L2,0 L0,4 L-7,11 L-8,127 L-11,127 L-10,126 L-9,9 Z " fill="#7D7D7D" transform="translate(376,574)"/>
<path d="M0,0 L4,2 L27,25 L27,62 L25,62 L24,26 L0,2 Z " fill="#787878" transform="translate(177,640)"/>
<path d="M0,0 L5,1 L6,6 L3,7 L3,57 L1,58 L1,7 L-1,7 L-2,2 Z M0,58 Z " fill="#797979" transform="translate(226,353)"/>
<path d="M0,0 L5,1 L6,6 L4,8 L3,48 L1,49 L0,8 L-2,6 L-1,1 Z M-1,49 L1,50 L-5,56 L-7,55 Z M-8,56 Z " fill="#606060" transform="translate(376,294)"/>
<path d="M0,0 L2,1 L3,113 L5,115 L4,120 L-1,121 L-2,120 L-2,114 L0,113 Z M0,115 L0,119 L4,118 L3,115 Z " fill="#6B6B6B" transform="translate(246,351)"/>
<path d="M0,0 L5,1 L6,6 L4,8 L3,63 L2,63 L1,40 L1,8 L-1,8 L-2,2 Z " fill="#636363" transform="translate(378,464)"/>
<path d="M0,0 L38,0 L38,1 L0,1 Z M38,1 L42,3 L53,13 L54,15 L61,17 L61,22 L56,24 L53,21 L51,15 L46,11 L39,3 Z " fill="#707070" transform="translate(394,568)"/>
<path d="M0,0 L5,0 L7,2 L6,7 L5,8 L4,82 L3,82 L2,11 L-1,6 L-1,1 Z " fill="#6F6F6F" transform="translate(309,267)"/>
<path d="M0,0 L2,1 L3,43 L5,47 L3,50 L-2,49 L-3,44 L0,43 Z " fill="#434343" transform="translate(141,132)"/>
<path d="M0,0 L4,2 L12,10 L20,17 L37,34 L36,38 L16,18 L9,10 L0,1 Z M37,35 Z M38,36 Z M39,37 Z M37,38 Z M40,38 Z M38,39 Z M41,39 Z M39,40 Z M40,41 Z M41,42 Z " fill="#585858" transform="translate(69,98)"/>
<path d="M0,0 L5,0 L6,3 L20,3 L43,26 L42,28 L20,6 L6,6 L5,7 L-1,7 L-2,2 Z " fill="#3D3D3D" transform="translate(63,354)"/>
<path d="M0,0 L6,1 L7,7 L4,10 L3,27 L0,30 L-2,29 L0,27 L1,9 L-2,8 L-3,3 Z M-3,30 L-2,32 L-4,31 Z " fill="#6E6E6E" transform="translate(93,235)"/>
<path d="M0,0 L5,1 L6,6 L2,8 L3,43 L13,53 L12,55 L1,44 L1,8 L-2,7 L-2,1 Z " fill="#989898" transform="translate(346,269)"/>
<path d="M0,0 L5,1 L6,6 L4,8 L-1,7 L-5,7 L-14,16 L-46,16 L-46,15 L-15,14 L-4,3 Z " fill="#595959" transform="translate(460,544)"/>
<path d="M0,0 Z M-1,1 Z M-2,2 Z M-3,3 Z M-4,4 Z M-5,5 Z M-6,6 Z M-7,7 Z M-8,8 Z M-9,9 Z M-10,10 Z M-11,11 Z M-12,12 Z M-13,13 Z M-14,14 Z M-15,15 Z M-16,16 Z M-17,17 L-16,17 L-15,63 L-13,65 L-14,70 L-18,71 L-20,70 L-20,65 L-18,63 Z " fill="#A8A8A8" transform="translate(214,303)"/>
<path d="M0,0 L5,0 L6,5 L3,10 L2,69 L1,69 L0,7 L-1,6 L-1,1 Z " fill="#373737" transform="translate(170,89)"/>
<path d="M0,0 L1,0 L2,82 L3,85 L-1,85 L-1,89 L-3,89 L-4,85 L-1,82 Z M3,85 Z " fill="#787878" transform="translate(64,428)"/>
<path d="M0,0 L1,0 L1,43 L3,43 L4,48 L2,50 L-3,49 L-4,45 L-3,43 L-1,43 L-1,27 Z " fill="#797979" transform="translate(318,381)"/>
<path d="M0,0 L1,0 L2,38 L3,42 L1,44 L-3,43 L-2,38 L-1,1 Z " fill="#3D3D3D" transform="translate(335,241)"/>
<path d="M0,0 L1,0 L2,62 L4,63 L3,68 L-3,68 L-2,62 L-1,61 Z M-2,68 Z M-1,69 L1,70 Z " fill="#414141" transform="translate(111,142)"/>
<path d="M0,0 L3,0 L5,5 L3,8 L1,8 L1,42 L-7,50 L-9,49 L-1,41 L0,8 L-3,7 L-3,2 Z " fill="#858585" transform="translate(396,424)"/>
<path d="M0,0 L1,0 L1,49 L4,50 L5,54 L3,57 L-2,56 L-3,51 L-1,49 Z " fill="#565656" transform="translate(280,345)"/>
<path d="M0,0 L5,1 L6,6 L4,8 L3,13 L2,43 L1,43 L0,8 L-2,6 L-1,1 Z " fill="#606060" transform="translate(76,397)"/>
<path d="M0,0 L5,1 L6,6 L2,8 L2,45 L1,45 L1,8 L-2,7 L-2,1 Z " fill="#888888" transform="translate(112,230)"/>
<path d="M0,0 L4,1 L5,2 L5,7 L2,8 L2,50 L1,50 L1,8 L-2,7 L-2,2 Z " fill="#868686" transform="translate(266,69)"/>
<path d="M0,0 L0,3 L-14,17 L-16,24 L-21,24 L-23,22 L-22,17 L-18,16 L-14,14 Z " fill="#707070" transform="translate(379,559)"/>
<path d="M0,0 L5,0 L6,1 L6,6 L3,7 L3,41 L2,41 L1,8 L-2,5 L-1,1 Z " fill="#6F6F6F" transform="translate(252,661)"/>
<path d="M0,0 L1,2 L-6,10 L-12,16 L-13,56 L-14,56 L-15,15 Z " fill="#565656" transform="translate(123,288)"/>
<path d="M0,0 L1,0 L1,6 L0,6 Z M-2,5 L0,7 L-6,12 L-9,16 L-11,16 L-13,20 L-16,21 L-16,23 L-18,23 L-20,27 L-25,32 L-28,31 Z M-29,32 Z M-30,33 Z " fill="#434343" transform="translate(216,392)"/>
<path d="M0,0 L1,0 L2,28 L5,31 L5,36 L4,37 L-1,37 L-3,35 L-2,31 L-1,30 Z " fill="#5E5E5E" transform="translate(71,552)"/>
<path d="M0,0 L6,0 L8,2 L7,8 L4,10 L2,13 L2,9 L-2,7 L-1,1 Z " fill="#616161" transform="translate(89,434)"/>
<path d="M0,0 Z M-1,1 Z M1,1 Z M-2,2 Z M0,2 Z M-1,3 Z M-3,3 L-1,5 L-5,9 L-12,10 L-14,13 L-19,12 L-20,7 L-19,5 L-13,5 L-12,8 L-5,7 Z " fill="#6E6E6E" transform="translate(84,332)"/>
<path d="M0,0 L5,0 L6,1 L6,6 L3,9 L2,33 L1,33 L0,8 L-2,5 L-1,1 Z " fill="#4F4F4F" transform="translate(121,396)"/>
<path d="M0,0 L3,1 L-12,16 L-14,15 L-9,10 L-1,2 Z M-15,16 L-14,16 L-14,51 L-17,53 L-17,50 L-15,50 Z M-18,53 Z " fill="#7D7D7D" transform="translate(141,237)"/>
<path d="M0,0 L1,2 L5,4 L4,10 L3,11 L-2,11 L-4,9 L-4,4 Z " fill="#474747" transform="translate(186,568)"/>
<path d="M0,0 L5,1 L6,6 L4,8 L3,23 L2,23 L1,8 L-1,8 L-2,2 Z " fill="#5C5C5C" transform="translate(378,464)"/>
<path d="M0,0 L4,2 L24,22 L23,25 L19,20 L14,16 L9,11 L4,5 L0,2 Z M24,25 Z M25,26 Z M26,27 Z " fill="#6E6E6E" transform="translate(113,635)"/>
<path d="M0,0 L4,2 L10,7 L15,8 L16,12 L14,14 L9,13 L6,7 Z " fill="#656565" transform="translate(169,393)"/>
<path d="M0,0 L6,0 L9,9 L5,8 L0,7 L-1,6 L-1,1 Z " fill="#5E5E5E" transform="translate(90,354)"/>
<path d="M0,0 L4,1 L5,6 L4,8 L2,8 L2,14 L1,14 L0,9 L-3,6 L-2,1 Z " fill="#606060" transform="translate(63,414)"/>
<path d="M0,0 L5,0 L6,1 L6,7 L2,9 L-2,6 L-1,1 Z " fill="#575757" transform="translate(390,349)"/>
<path d="M0,0 L5,0 L7,2 L6,7 L3,10 L-1,6 L-1,1 Z " fill="#525252" transform="translate(309,267)"/>
<path d="M0,0 L4,1 L12,9 L17,14 L19,18 L15,16 L0,1 Z " fill="#5A5A5A" transform="translate(45,0)"/>
<path d="M0,0 L4,5 L5,8 L3,11 L-2,11 L-3,10 L-3,4 L0,3 Z " fill="#7C7C7C" transform="translate(366,450)"/>
<path d="M0,0 Z M-1,1 L6,1 L7,5 L5,8 L4,16 L3,16 L3,8 L-1,6 Z " fill="#696969" transform="translate(140,199)"/>
<path d="M0,0 L3,4 L4,9 L2,11 L-3,10 L-4,6 L-3,4 L-1,4 Z " fill="#595959" transform="translate(228,133)"/>
<path d="M0,0 L5,1 L6,6 L4,8 L-1,7 L-2,2 Z " fill="#909090" transform="translate(76,491)"/>
<path d="M0,0 L5,0 L6,1 L6,6 L1,8 L-2,5 L-1,1 Z " fill="#535353" transform="translate(449,584)"/>
<path d="M0,0 L1,0 L1,5 L4,6 L4,11 L3,12 L-2,12 L-3,11 L-3,6 L0,5 Z " fill="#717171" transform="translate(199,522)"/>
<path d="M0,0 L4,1 L5,2 L5,7 L2,8 L1,10 L1,8 L-2,7 L-2,2 Z " fill="#666666" transform="translate(51,367)"/>
<path d="M0,0 L1,0 L3,7 L15,19 L13,21 L-1,7 Z " fill="#5C5C5C" transform="translate(312,349)"/>
<path d="M0,0 L5,1 L6,6 L2,8 L-2,6 L-1,1 Z " fill="#949494" transform="translate(376,294)"/>
<path d="M0,0 L5,1 L6,6 L4,8 L-1,7 L-2,3 Z " fill="#626262" transform="translate(266,282)"/>
<path d="M0,0 L2,0 L0,4 L-13,17 L-16,16 L-2,2 L0,2 Z " fill="#6B6B6B" transform="translate(331,685)"/>
<path d="M0,0 Z M2,0 L6,2 L5,7 L0,8 L-3,4 Z " fill="#494949" transform="translate(460,544)"/>
<path d="M0,0 L4,5 L3,10 L-1,11 L-3,10 L-3,5 Z " fill="#939393" transform="translate(197,363)"/>
<path d="M0,0 Z M-1,1 Z M-2,2 Z M-5,3 L-3,5 L-6,6 L-8,10 L-15,16 L-20,21 L-23,21 Z M-3,3 Z " fill="#565656" transform="translate(240,306)"/>
<path d="M0,0 L4,1 L5,6 L3,8 L-2,7 L-3,3 Z " fill="#898989" transform="translate(317,423)"/>
<path d="M0,0 L3,1 L2,2 L4,3 L4,7 L2,7 L1,9 L-2,9 L-3,3 Z M0,9 Z M2,9 Z " fill="#3B3B3B" transform="translate(239,167)"/>
<path d="M0,0 L5,0 L6,5 L2,10 L2,7 L-1,6 L-1,1 Z " fill="#767676" transform="translate(170,89)"/>
<path d="M0,0 Z M1,1 L5,3 L15,13 L15,15 L17,16 L14,16 L1,3 Z " fill="#7C7C7C" transform="translate(161,624)"/>
<path d="M0,0 L5,0 L7,4 L5,7 L0,6 L-1,1 Z " fill="#696969" transform="translate(139,175)"/>
<path d="M0,0 L4,1 L5,6 L2,8 L-1,8 L-2,2 Z " fill="#747474" transform="translate(313,18)"/>
<path d="M0,0 L6,4 L13,12 L21,20 L18,20 L0,2 Z " fill="#787878" transform="translate(93,614)"/>
<path d="M0,0 L7,6 L16,15 L18,16 L18,18 L14,17 L14,15 L10,13 L1,3 Z " fill="#707070" transform="translate(137,658)"/>
<path d="M0,0 L5,1 L4,6 L-1,7 L-2,2 Z M0,7 Z " fill="#525252" transform="translate(70,597)"/>
<path d="M0,0 Z M-1,1 L0,4 L-8,11 L-15,18 L-18,21 L-18,18 Z " fill="#545454" transform="translate(368,558)"/>
<path d="M0,0 L2,4 L7,5 L6,10 L1,9 Z " fill="#515151" transform="translate(309,248)"/>
<path d="M0,0 L5,1 L5,6 L0,7 L-2,5 L-1,1 Z " fill="#808080" transform="translate(157,220)"/>
<path d="M0,0 L5,0 L6,4 L4,6 L-2,5 L-1,1 Z M5,5 Z " fill="#5D5D5D" transform="translate(252,661)"/>
<path d="M0,0 L1,0 L1,5 L-2,6 L-2,28 L-3,28 L-4,5 L-1,3 Z M-5,4 Z M-2,28 Z M-1,29 Z M0,30 Z " fill="#7E7E7E" transform="translate(75,599)"/>
<path d="M0,0 L5,1 L6,6 L3,6 L-2,6 L-1,1 Z " fill="#A0A0A0" transform="translate(357,591)"/>
<path d="M0,0 L5,1 L6,6 L0,6 L-2,4 L-2,1 Z " fill="#838383" transform="translate(112,230)"/>
<path d="M0,0 L3,1 L3,6 L-2,8 L-3,7 L-3,2 Z " fill="#696969" transform="translate(396,424)"/>
<path d="M0,0 L7,0 L8,3 L6,6 L1,5 Z " fill="#4A4A4A" transform="translate(277,396)"/>
<path d="M0,0 L5,2 L6,3 L6,8 L2,10 L3,4 L-2,3 L-2,1 Z M-3,3 Z M1,10 Z " fill="#747474" transform="translate(143,197)"/>
<path d="M0,0 L4,2 L4,7 L2,8 L0,11 L0,7 L-2,6 Z M4,5 Z " fill="#575757" transform="translate(91,436)"/>
<path d="M0,0 L5,1 L6,6 L4,7 L-1,4 Z " fill="#757575" transform="translate(226,353)"/>
<path d="M0,0 L5,4 L5,6 L9,8 L12,11 L12,13 L8,11 L-1,2 Z " fill="#828282" transform="translate(132,594)"/>
<path d="M0,0 Z M1,1 L2,4 L-2,6 L-4,10 L-8,12 L-10,16 L-12,14 L-9,13 L-9,11 L-7,11 L-5,7 L-3,7 L-3,5 L-1,5 Z " fill="#505050" transform="translate(415,463)"/>
<path d="M0,0 L5,1 L6,6 L3,6 L-1,6 L-2,1 Z " fill="#6B6B6B" transform="translate(346,269)"/>
<path d="M0,0 L3,0 L4,6 L-1,7 L-2,3 Z " fill="#5A5A5A" transform="translate(358,575)"/>
<path d="M0,0 L4,2 L12,10 L10,12 L6,7 L1,2 Z M12,11 Z M11,12 Z M13,12 Z M12,13 Z M14,13 Z M13,14 Z " fill="#424242" transform="translate(401,336)"/>
<path d="M0,0 L3,1 L4,6 L-1,7 L-3,3 L-1,3 Z M4,3 Z " fill="#616161" transform="translate(67,338)"/>
<path d="M0,0 L3,1 L1,2 L1,4 L4,4 L6,2 L5,7 L2,9 L-2,5 L-1,1 Z " fill="#828282" transform="translate(210,497)"/>
<path d="M0,0 L4,5 L3,10 L-2,11 L-3,10 L-3,4 L-1,3 Z M-1,5 L-1,9 L3,8 L2,5 Z " fill="#676767" transform="translate(247,461)"/>
<path d="M0,0 Z M1,1 L6,4 L14,12 L13,14 L10,12 L10,10 L8,10 L3,5 Z M14,14 Z M15,15 Z " fill="#5D5D5D" transform="translate(99,363)"/>
<path d="M0,0 Z M1,1 Z M3,1 Z M2,2 Z M4,2 Z M3,3 Z M5,3 L12,9 L16,13 L15,15 L4,5 Z " fill="#707070" transform="translate(334,455)"/>
<path d="M0,0 L6,4 L10,9 L7,9 L0,2 Z M10,9 Z M9,10 Z M11,10 Z M12,11 Z M13,12 Z M14,13 Z " fill="#5E5E5E" transform="translate(96,124)"/>
<path d="M0,0 L2,2 L-5,8 L-5,5 Z M-7,7 Z M-8,8 Z M-6,8 Z M-9,9 Z M-7,9 Z M-10,10 Z M-8,10 Z M-11,11 Z M-9,11 Z M-10,12 Z M-11,13 Z " fill="#7F7F7F" transform="translate(347,38)"/>
<path d="M0,0 L5,1 L6,6 L1,6 L-1,1 Z " fill="#898989" transform="translate(363,17)"/>
<path d="M0,0 L2,0 L0,4 L-7,11 L-9,9 Z " fill="#5D5D5D" transform="translate(376,574)"/>
<path d="M0,0 L5,2 L11,10 L7,8 L1,3 Z " fill="#5A5A5A" transform="translate(439,576)"/>
<path d="M0,0 Z M1,1 L5,3 L11,9 L11,11 L7,9 L1,3 Z " fill="#989898" transform="translate(307,361)"/>
<path d="M0,0 L2,0 L3,3 L8,2 L10,7 L6,6 L1,5 Z " fill="#6C6C6C" transform="translate(89,356)"/>
<path d="M0,0 L4,0 L5,4 L3,6 L-1,5 Z " fill="#818181" transform="translate(333,279)"/>
<path d="M0,0 L4,1 L5,5 L4,6 L-1,6 L-1,1 Z M4,0 Z " fill="#5B5B5B" transform="translate(63,512)"/>
<path d="M0,0 L4,1 L5,2 L5,7 L-1,5 Z " fill="#3B3B3B" transform="translate(235,392)"/>
<path d="M0,0 L2,1 L2,4 L4,4 L6,2 L9,7 L10,9 L6,7 L-1,5 Z " fill="#626262" transform="translate(229,335)"/>
<path d="M0,0 L5,1 L6,6 L3,6 L0,5 Z " fill="#515151" transform="translate(230,334)"/>
<path d="M0,0 L3,4 L3,6 L-1,6 L-1,10 L-3,10 L-4,6 L-1,3 Z M3,6 Z " fill="#6A6A6A" transform="translate(64,507)"/>
<path d="M0,0 L1,3 L7,1 L6,5 L4,5 L4,13 L3,13 L3,5 L0,4 Z " fill="#8B8B8B" transform="translate(344,272)"/>
<path d="M0,0 L2,1 Z M2,1 L3,1 L3,8 L-2,9 L-4,7 L0,6 Z M-5,5 Z " fill="#535353" transform="translate(114,203)"/>
<path d="M0,0 L4,1 L10,8 L7,8 L0,1 Z " fill="#7E7E7E" transform="translate(143,607)"/>
<path d="M0,0 Z M-5,1 L-3,4 L0,4 L2,1 L3,4 L1,7 L-4,7 L-5,6 Z " fill="#A5A5A5" transform="translate(368,454)"/>
<path d="M0,0 Z M-1,1 Z M1,1 Z M0,2 Z M2,2 L9,8 L7,10 L1,3 Z " fill="#747474" transform="translate(194,656)"/>
<path d="M0,0 Z M1,1 L2,1 L2,6 L0,7 L-4,5 L-3,2 Z " fill="#4C4C4C" transform="translate(453,584)"/>
<path d="M0,0 L2,2 L-1,5 L-3,5 L-5,9 L-7,9 L-5,5 Z M2,0 Z " fill="#606060" transform="translate(385,565)"/>
<path d="M0,0 L5,1 L6,3 L4,6 L0,5 L0,1 Z " fill="#5B5B5B" transform="translate(210,496)"/>
<path d="M0,0 L2,1 L-1,9 L-6,9 L-3,7 L-3,2 Z " fill="#626262" transform="translate(364,574)"/>
<path d="M0,0 L2,1 L1,2 L0,9 L-3,7 L-3,2 Z " fill="#6B6B6B" transform="translate(113,419)"/>
<path d="M0,0 L6,0 L4,2 L2,2 L3,7 L-1,6 L-1,1 Z M4,6 Z M3,7 Z " fill="#434343" transform="translate(397,297)"/>
<path d="M0,0 Z M-1,1 Z M-2,2 Z M-3,3 L-3,6 L-6,10 L-8,10 L-8,12 L-10,12 L-8,8 Z " fill="#888888" transform="translate(296,187)"/>
<path d="M0,0 L4,1 L9,6 L9,8 L5,6 Z " fill="#5D5D5D" transform="translate(45,0)"/>
<path d="M0,0 Z M1,1 Z M2,2 Z M3,3 L7,4 L10,7 L9,10 L5,5 Z M10,10 Z M11,11 Z M12,12 Z " fill="#585858" transform="translate(127,650)"/>
<path d="M0,0 L5,1 L4,5 L0,4 Z " fill="#080808" transform="translate(184,572)"/>
<path d="M0,0 L4,1 L3,5 L-1,5 Z " fill="#131313" transform="translate(94,237)"/>
<path d="M0,0 Z M1,1 L5,3 L9,7 L8,9 L1,3 Z " fill="#808080" transform="translate(161,624)"/>
<path d="M0,0 L3,1 L2,5 L4,7 L2,9 L2,7 L-1,6 L-1,1 Z " fill="#777777" transform="translate(50,368)"/>
<path d="M0,0 L4,1 L3,5 L-1,4 Z " fill="#111111" transform="translate(143,200)"/>
<path d="M0,0 L2,2 L-1,2 Z M-2,2 Z M-3,3 Z M-1,3 Z M-4,4 Z M-2,4 Z M-5,5 Z M-3,5 Z M-6,6 Z M-4,6 Z M-5,7 Z M-8,8 Z M-6,8 Z M-9,9 Z M-7,9 Z M-8,10 Z " fill="#414141" transform="translate(215,301)"/>
<path d="M0,0 L6,0 L7,5 L4,5 L4,2 L0,2 Z M2,6 L4,7 Z " fill="#656565" transform="translate(309,268)"/>
<path d="M0,0 L4,0 L4,4 L1,5 L-1,4 Z " fill="#080808" transform="translate(239,170)"/>
<path d="M0,0 L2,1 L-3,7 L-6,6 Z " fill="#878787" transform="translate(114,297)"/>
<path d="M0,0 L1,0 L1,5 L-2,6 L-2,11 L-3,11 L-4,5 L-1,3 Z M-5,4 Z " fill="#676767" transform="translate(75,599)"/>
<path d="M0,0 Z M-1,1 L0,4 L-5,8 L-7,7 Z M-8,8 Z M-9,9 Z " fill="#5D5D5D" transform="translate(392,567)"/>
<path d="M0,0 L2,1 L1,5 L3,6 L2,8 L-2,6 L-1,1 Z " fill="#8D8D8D" transform="translate(76,397)"/>
<path d="M0,0 L1,2 L1,5 L4,7 L-1,7 L-2,2 Z M4,5 Z " fill="#4F4F4F" transform="translate(63,354)"/>
<path d="M0,0 L5,1 L6,5 L4,5 L3,3 L-1,3 Z " fill="#9D9D9D" transform="translate(376,294)"/>
<path d="M0,0 L4,0 L3,5 L0,4 Z " fill="#090909" transform="translate(111,205)"/>
<path d="M0,0 L4,1 L3,4 L-1,3 Z M4,3 Z " fill="#131313" transform="translate(246,466)"/>
<path d="M0,0 L1,4 L4,5 L2,7 L-1,6 L-2,8 L-1,4 Z " fill="#4C4C4C" transform="translate(280,390)"/>
<path d="M0,0 Z M-1,1 Z M-2,2 Z M-5,3 L-3,5 L-6,6 L-7,8 L-7,5 Z M-3,3 Z M-8,8 Z M-9,9 Z M-10,10 Z " fill="#383838" transform="translate(240,306)"/>
<path d="M0,0 L2,0 L2,5 L-3,6 L-4,4 L0,3 Z " fill="#808080" transform="translate(201,528)"/>
<path d="M0,0 Z M1,1 Z M3,1 Z M2,2 Z M4,2 Z M3,3 Z M5,3 L8,5 L7,8 L4,4 Z " fill="#535353" transform="translate(334,455)"/>
<path d="M0,0 L4,2 L1,5 L-1,4 Z " fill="#090909" transform="translate(91,436)"/>
<path d="M0,0 Z M-1,1 L1,4 L1,8 L-2,7 Z " fill="#5D5D5D" transform="translate(89,434)"/>
<path d="M0,0 L4,0 L4,3 L0,4 Z M1,4 L4,5 Z " fill="#454545" transform="translate(385,293)"/>
<path d="M0,0 L1,2 L-2,5 L-5,4 L-5,2 Z " fill="#646464" transform="translate(99,240)"/>
<path d="M0,0 L3,1 L2,5 L-1,4 Z " fill="#151515" transform="translate(158,221)"/>
<path d="M0,0 L2,0 L1,5 L-2,5 Z M-3,6 Z " fill="#878787" transform="translate(147,201)"/>
<path d="M0,0 L3,1 L2,6 L-1,6 L0,2 Z " fill="#999999" transform="translate(79,492)"/>
<path d="M0,0 L4,0 L3,4 L0,4 Z " fill="#070707" transform="translate(113,422)"/>
<path d="M0,0 L2,1 L1,5 L-2,4 L-2,1 Z " fill="#0E0E0E" transform="translate(181,401)"/>
<path d="M0,0 L3,0 L3,4 L-1,4 Z " fill="#191919" transform="translate(196,368)"/>
<path d="M0,0 L3,0 L3,4 L-1,3 Z " fill="#0D0D0D" transform="translate(71,599)"/>
<path d="M0,0 L1,4 L-4,5 L-5,3 L-1,2 Z " fill="#A6A6A6" transform="translate(361,594)"/>
<path d="M0,0 L4,0 L3,4 L0,3 Z " fill="#0C0C0C" transform="translate(259,584)"/>
<path d="M0,0 L3,0 L3,4 L-1,3 Z " fill="#121212" transform="translate(71,583)"/>
<path d="M0,0 L4,0 L3,4 L0,3 Z " fill="#0B0B0B" transform="translate(460,546)"/>
<path d="M0,0 L3,1 L3,4 L-1,4 Z " fill="#0E0E0E" transform="translate(317,425)"/>
<path d="M0,0 L3,1 L3,4 L-1,4 Z " fill="#121212" transform="translate(122,397)"/>
<path d="M0,0 L3,0 L3,4 L-1,3 Z " fill="#0C0C0C" transform="translate(227,355)"/>
<path d="M0,0 L3,1 L3,4 L-1,4 Z " fill="#101010" transform="translate(67,338)"/>
<path d="M0,0 L3,1 L3,4 L-1,4 Z " fill="#0C0C0C" transform="translate(399,298)"/>
<path d="M0,0 L3,1 L3,4 L-1,4 Z " fill="#191919" transform="translate(113,232)"/>
<path d="M0,0 L3,1 L3,4 L-1,4 Z " fill="#101010" transform="translate(141,176)"/>
<path d="M0,0 L3,1 L3,4 L-1,4 Z " fill="#090909" transform="translate(227,138)"/>
<path d="M0,0 L3,0 L3,4 L-1,3 Z " fill="#0D0D0D" transform="translate(266,71)"/>
<path d="M0,0 L3,0 L3,4 L-1,3 Z " fill="#171717" transform="translate(313,20)"/>
<path d="M0,0 L3,0 L2,4 L-1,3 Z " fill="#0E0E0E" transform="translate(253,663)"/>
<path d="M0,0 L3,1 L3,4 L-1,3 Z " fill="#0F0F0F" transform="translate(63,512)"/>
<path d="M0,0 L3,0 L2,4 L-1,3 Z " fill="#0C0C0C" transform="translate(379,466)"/>
<path d="M0,0 L4,0 L3,4 L0,3 Z " fill="#111111" transform="translate(395,427)"/>
<path d="M0,0 L4,1 L3,4 L0,3 Z " fill="#101010" transform="translate(76,399)"/>
<path d="M0,0 L4,1 L3,4 L0,3 Z " fill="#070707" transform="translate(279,396)"/>
<path d="M0,0 L3,1 L3,4 L-1,3 Z " fill="#080808" transform="translate(235,394)"/>
<path d="M0,0 L4,1 L3,4 L0,3 Z " fill="#0C0C0C" transform="translate(63,356)"/>
<path d="M0,0 L4,1 L3,4 L0,3 Z " fill="#0A0A0A" transform="translate(230,336)"/>
<path d="M0,0 L4,1 L3,4 L0,3 Z " fill="#151515" transform="translate(376,296)"/>
<path d="M0,0 L3,0 L2,4 L-1,3 Z " fill="#0B0B0B" transform="translate(267,284)"/>
<path d="M0,0 L3,1 L2,4 L-1,4 Z " fill="#0A0A0A" transform="translate(311,269)"/>
<path d="M0,0 L3,0 L2,4 L-1,3 Z " fill="#0D0D0D" transform="translate(364,19)"/>
<path d="M0,0 L3,1 L2,4 L-1,3 Z " fill="#111111" transform="translate(358,593)"/>
<path d="M0,0 L3,0 L2,4 L-1,3 Z " fill="#0B0B0B" transform="translate(450,586)"/>
<path d="M0,0 L5,4 L1,4 Z " fill="#717171" transform="translate(68,584)"/>
<path d="M0,0 L3,1 L2,4 L-1,3 Z " fill="#0C0C0C" transform="translate(77,493)"/>
<path d="M0,0 L2,0 L0,5 L-2,5 L-1,1 Z " fill="#5F5F5F" transform="translate(378,464)"/>
<path d="M0,0 Z M-2,1 L0,1 L-2,5 L-4,6 L-3,2 Z " fill="#8D8D8D" transform="translate(136,460)"/>
<path d="M0,0 L3,1 L2,3 L-2,2 Z M-3,2 Z " fill="#585858" transform="translate(396,424)"/>
<path d="M0,0 L3,0 L4,3 L0,3 Z " fill="#0E0E0E" transform="translate(91,356)"/>
<path d="M0,0 L3,0 L3,4 L0,4 Z " fill="#090909" transform="translate(391,351)"/>
<path d="M0,0 L3,4 L1,6 L-1,4 Z " fill="#494949" transform="translate(228,133)"/>
<path d="M0,0 L4,0 L4,3 L0,2 Z " fill="#060606" transform="translate(358,578)"/>
<path d="M0,0 L4,1 L3,3 L-1,2 Z " fill="#080808" transform="translate(198,529)"/>
<path d="M0,0 L4,1 L3,3 L-1,2 Z " fill="#0A0A0A" transform="translate(63,417)"/>
<path d="M0,0 L1,0 L2,7 L-1,7 Z " fill="#646464" transform="translate(312,349)"/>
<path d="M0,0 L2,0 L2,4 L-1,4 Z " fill="#0B0B0B" transform="translate(347,271)"/>
<path d="M0,0 L3,1 L-2,5 Z " fill="#535353" transform="translate(110,203)"/>
<path d="M0,0 L3,0 L3,3 L-1,3 Z " fill="#0B0B0B" transform="translate(171,91)"/>
<path d="M0,0 L3,2 L2,5 L-1,2 Z " fill="#444444" transform="translate(64,16)"/>
<path d="M0,0 L4,1 L5,4 L1,2 Z " fill="#5F5F5F" transform="translate(59,14)"/>
<path d="M0,0 L3,2 L3,4 L-1,2 Z M3,4 Z " fill="#5B5B5B" transform="translate(54,7)"/>
<path d="M0,0 L4,1 L5,3 L1,2 Z M5,3 Z " fill="#787878" transform="translate(143,607)"/>
<path d="M0,0 L1,2 L3,3 L-1,4 L-1,1 Z " fill="#3F3F3F" transform="translate(186,568)"/>
<path d="M0,0 L2,0 L3,3 L0,3 Z M2,4 Z " fill="#3B3B3B" transform="translate(458,547)"/>
<path d="M0,0 L3,0 L3,3 L-1,2 Z " fill="#040404" transform="translate(211,499)"/>
<path d="M0,0 L5,2 L1,3 Z " fill="#525252" transform="translate(244,469)"/>
<path d="M0,0 Z M1,1 L2,4 L-1,6 L0,2 Z " fill="#454545" transform="translate(415,463)"/>
<path d="M0,0 Z M-1,1 Z M-2,2 L-1,5 L-4,5 Z M-4,6 Z " fill="#6E6E6E" transform="translate(140,455)"/>
<path d="M0,0 L2,1 L2,4 L-1,4 Z " fill="#080808" transform="translate(366,455)"/>
<path d="M0,0 L2,1 L2,4 L-1,4 Z " fill="#050505" transform="translate(52,369)"/>
<path d="M0,0 Z M1,1 Z M0,2 Z M2,2 L4,4 L1,4 Z M4,4 Z M3,5 Z " fill="#8A8A8A" transform="translate(304,357)"/>
<path d="M0,0 L4,1 L2,5 L2,2 L0,2 Z " fill="#4A4A4A" transform="translate(392,349)"/>
<path d="M0,0 L3,3 L0,3 Z M3,3 Z M4,4 Z " fill="#555555" transform="translate(94,121)"/>
</svg>